<?xml version="1.0" encoding="UTF-8"?>
<svg id="Capa_2" data-name="Capa 2" xmlns="http://www.w3.org/2000/svg" viewBox="0 0 1047.29 71.3">
  <defs>
    <style>
      .cls-1 {
        fill: #fff;
      }
    </style>
  </defs>
  <g id="Capa_1-2" data-name="Capa 1">
    <g>
      <path class="cls-1" d="M91.9,28.64c-.54.24-1.03.46-1.47.66-.44.21-1.01.42-1.72.65-.6.19-1.25.35-1.96.48-.7.13-1.48.2-2.32.2-1.59,0-3.04-.22-4.35-.67-1.3-.45-2.44-1.15-3.4-2.1-.94-.93-1.68-2.12-2.21-3.56-.53-1.44-.8-3.12-.8-5.02,0-1.81.26-3.43.77-4.85.51-1.43,1.25-2.63,2.21-3.62.93-.95,2.06-1.68,3.39-2.18s2.79-.75,4.4-.75c1.18,0,2.36.14,3.53.43,1.18.29,2.48.79,3.92,1.5v3.47h-.22c-1.21-1.01-2.41-1.75-3.6-2.21-1.19-.46-2.46-.69-3.82-.69-1.11,0-2.11.18-3,.54-.89.36-1.68.92-2.38,1.67-.68.74-1.21,1.67-1.59,2.8-.38,1.13-.57,2.43-.57,3.9s.21,2.87.63,3.98c.42,1.11.96,2.02,1.62,2.71.69.73,1.49,1.27,2.41,1.62.92.35,1.89.52,2.91.52,1.41,0,2.72-.24,3.95-.72,1.23-.48,2.38-1.21,3.45-2.17h.21v3.42Z"/>
      <path class="cls-1" d="M116.49,10.79c.89.98,1.58,2.19,2.06,3.62.48,1.43.72,3.04.72,4.85s-.24,3.43-.73,4.86c-.49,1.43-1.17,2.62-2.04,3.58-.91.99-1.98,1.74-3.21,2.24-1.23.5-2.64.75-4.23.75s-2.95-.26-4.21-.77c-1.26-.51-2.34-1.25-3.22-2.23s-1.57-2.17-2.04-3.58c-.48-1.42-.72-3.03-.72-4.85s.24-3.4.71-4.82c.47-1.42,1.16-2.64,2.07-3.65.87-.96,1.94-1.7,3.22-2.21s2.68-.77,4.2-.77,2.99.26,4.24.77c1.25.52,2.32,1.25,3.19,2.21ZM116.22,19.25c0-2.85-.64-5.05-1.92-6.6-1.28-1.55-3.02-2.32-5.24-2.32s-3.99.77-5.26,2.32c-1.27,1.55-1.91,3.75-1.91,6.6s.65,5.09,1.95,6.62c1.3,1.53,3.04,2.29,5.22,2.29s3.92-.76,5.22-2.29c1.29-1.53,1.94-3.73,1.94-6.62Z"/>
      <path class="cls-1" d="M147.54,30.23h-2.92V11.3l-6.11,12.88h-1.74l-6.06-12.88v18.93h-2.73V8.26h3.98l5.86,12.23,5.67-12.23h4.06v21.97Z"/>
      <path class="cls-1" d="M171.9,14.9c0,.97-.17,1.88-.51,2.71s-.81,1.55-1.42,2.16c-.76.76-1.65,1.33-2.69,1.7-1.03.38-2.34.57-3.91.57h-2.92v8.19h-2.92V8.26h5.96c1.32,0,2.43.11,3.35.33.91.22,1.73.57,2.43,1.04.84.56,1.48,1.26,1.94,2.09s.69,1.89.69,3.17ZM168.86,14.98c0-.76-.13-1.42-.4-1.98s-.67-1.02-1.21-1.37c-.47-.3-1.01-.52-1.62-.66s-1.37-.2-2.29-.2h-2.89v8.78h2.46c1.18,0,2.14-.11,2.88-.32.74-.21,1.34-.55,1.8-1.01.46-.47.79-.97.98-1.49.19-.52.29-1.11.29-1.76Z"/>
      <path class="cls-1" d="M193.73,30.23h-13.9V8.26h2.92v19.37h10.98v2.6Z"/>
      <path class="cls-1" d="M215.21,30.23h-14.47V8.26h14.47v2.6h-11.55v6.02h11.55v2.6h-11.55v8.16h11.55v2.6Z"/>
      <path class="cls-1" d="M239.6,10.86h-7.85v19.37h-2.92V10.86h-7.85v-2.6h18.62v2.6Z"/>
      <path class="cls-1" d="M262.18,30.23h-3.11l-2.15-6.12h-9.5l-2.15,6.12h-2.97l8-21.97h3.9l8,21.97ZM256.01,21.6l-3.85-10.79-3.87,10.79h7.72Z"/>
      <path class="cls-1" d="M297.72,30.23h-14.47V8.26h14.47v2.6h-11.55v6.02h11.55v2.6h-11.55v8.16h11.55v2.6Z"/>
      <path class="cls-1" d="M320.33,30.23h-13.9V8.26h2.92v19.37h10.98v2.6Z"/>
      <path class="cls-1" d="M355.01,10.86h-11.11v6.2h9.55v2.6h-9.55v10.58h-2.92V8.26h14.03v2.6Z"/>
      <path class="cls-1" d="M378.81,10.79c.89.98,1.58,2.19,2.06,3.62.48,1.43.72,3.04.72,4.85s-.24,3.43-.73,4.86c-.49,1.43-1.17,2.62-2.04,3.58-.91.99-1.98,1.74-3.21,2.24-1.23.5-2.64.75-4.23.75s-2.95-.26-4.21-.77c-1.26-.51-2.34-1.25-3.22-2.23s-1.57-2.17-2.04-3.58c-.48-1.42-.72-3.03-.72-4.85s.24-3.4.71-4.82c.47-1.42,1.16-2.64,2.07-3.65.87-.96,1.94-1.7,3.22-2.21s2.68-.77,4.2-.77,2.99.26,4.24.77c1.25.52,2.32,1.25,3.19,2.21ZM378.54,19.25c0-2.85-.64-5.05-1.92-6.6-1.28-1.55-3.02-2.32-5.24-2.32s-3.99.77-5.26,2.32c-1.27,1.55-1.91,3.75-1.91,6.6s.65,5.09,1.95,6.62c1.3,1.53,3.04,2.29,5.22,2.29s3.92-.76,5.22-2.29c1.29-1.53,1.94-3.73,1.94-6.62Z"/>
      <path class="cls-1" d="M408.48,30.23h-3.79l-7.35-8.73h-4.12v8.73h-2.92V8.26h6.15c1.33,0,2.43.09,3.32.26s1.68.48,2.39.92c.8.5,1.42,1.13,1.87,1.9.45.76.67,1.73.67,2.9,0,1.58-.4,2.91-1.2,3.98s-1.89,1.87-3.29,2.41l8.26,9.61ZM401.65,14.44c0-.63-.11-1.19-.33-1.67-.22-.49-.59-.9-1.1-1.23-.42-.29-.92-.48-1.5-.6-.58-.11-1.26-.17-2.05-.17h-3.44v8.29h2.95c.92,0,1.73-.08,2.42-.24.69-.16,1.27-.46,1.76-.91.44-.41.77-.89.98-1.42.21-.54.32-1.22.32-2.04Z"/>
      <path class="cls-1" d="M434.96,30.23h-2.92V11.3l-6.11,12.88h-1.74l-6.06-12.88v18.93h-2.73V8.26h3.98l5.86,12.23,5.67-12.23h4.06v21.97Z"/>
      <path class="cls-1" d="M461.48,21.41c0,1.59-.17,2.98-.52,4.17s-.92,2.17-1.72,2.96c-.76.75-1.64,1.29-2.66,1.64-1.01.34-2.19.52-3.54.52s-2.58-.18-3.6-.55c-1.02-.36-1.88-.9-2.58-1.61-.8-.81-1.37-1.78-1.72-2.92s-.52-2.54-.52-4.21v-13.15h2.92v13.29c0,1.19.08,2.13.24,2.82s.44,1.31.82,1.87c.43.64,1.02,1.12,1.76,1.45.74.33,1.64.49,2.68.49s1.95-.16,2.69-.48c.74-.32,1.33-.8,1.77-1.45.38-.56.66-1.2.82-1.93.16-.72.24-1.62.24-2.69v-13.37h2.92v13.15Z"/>
      <path class="cls-1" d="M485.04,30.23h-13.9V8.26h2.92v19.37h10.98v2.6Z"/>
      <path class="cls-1" d="M509.37,30.23h-3.11l-2.15-6.12h-9.5l-2.15,6.12h-2.97l8-21.97h3.9l8,21.97ZM503.2,21.6l-3.85-10.79-3.87,10.79h7.72Z"/>
      <path class="cls-1" d="M534.97,30.23h-3.79l-7.35-8.73h-4.12v8.73h-2.92V8.26h6.15c1.33,0,2.43.09,3.32.26.89.17,1.68.48,2.39.92.8.5,1.42,1.13,1.87,1.9.45.76.67,1.73.67,2.9,0,1.58-.4,2.91-1.19,3.98-.8,1.07-1.89,1.87-3.29,2.41l8.26,9.61ZM528.13,14.44c0-.63-.11-1.19-.33-1.67-.22-.49-.59-.9-1.1-1.23-.42-.29-.92-.48-1.5-.6-.58-.11-1.26-.17-2.05-.17h-3.44v8.29h2.95c.93,0,1.73-.08,2.42-.24.69-.16,1.27-.46,1.76-.91.44-.41.77-.89.98-1.42.21-.54.32-1.22.32-2.04Z"/>
      <path class="cls-1" d="M549.63,30.23h-8.67v-2.24h2.88V10.5h-2.88v-2.24h8.67v2.24h-2.88v17.48h2.88v2.24Z"/>
      <path class="cls-1" d="M575.06,10.79c.89.98,1.58,2.19,2.06,3.62.48,1.43.72,3.04.72,4.85s-.24,3.43-.73,4.86c-.49,1.43-1.17,2.62-2.04,3.58-.91.99-1.97,1.74-3.21,2.24s-2.64.75-4.23.75-2.95-.26-4.21-.77c-1.26-.51-2.34-1.25-3.22-2.23-.89-.97-1.57-2.17-2.04-3.58-.48-1.42-.72-3.03-.72-4.85s.24-3.4.71-4.82c.47-1.42,1.16-2.64,2.07-3.65.87-.96,1.94-1.7,3.22-2.21s2.68-.77,4.2-.77,2.99.26,4.24.77c1.25.52,2.32,1.25,3.19,2.21ZM574.8,19.25c0-2.85-.64-5.05-1.92-6.6-1.28-1.55-3.02-2.32-5.24-2.32s-3.99.77-5.26,2.32c-1.27,1.55-1.91,3.75-1.91,6.6s.65,5.09,1.95,6.62c1.3,1.53,3.04,2.29,5.22,2.29s3.92-.76,5.22-2.29c1.29-1.53,1.94-3.73,1.94-6.62Z"/>
      <path class="cls-1" d="M614.57,14.9c0,.97-.17,1.88-.51,2.71-.34.83-.81,1.55-1.42,2.16-.76.76-1.65,1.33-2.69,1.7-1.03.38-2.34.57-3.91.57h-2.92v8.19h-2.92V8.26h5.96c1.32,0,2.43.11,3.35.33.92.22,1.73.57,2.43,1.04.84.56,1.48,1.26,1.94,2.09.46.84.69,1.89.69,3.17ZM611.53,14.98c0-.76-.13-1.42-.4-1.98s-.67-1.02-1.21-1.37c-.47-.3-1.01-.52-1.62-.66-.61-.13-1.37-.2-2.29-.2h-2.89v8.78h2.46c1.18,0,2.14-.11,2.88-.32.74-.21,1.34-.55,1.8-1.01.46-.47.79-.97.98-1.49.19-.52.29-1.11.29-1.76Z"/>
      <path class="cls-1" d="M639.09,30.23h-3.11l-2.15-6.12h-9.5l-2.15,6.12h-2.97l8-21.97h3.9l8,21.97ZM632.92,21.6l-3.85-10.79-3.87,10.79h7.72Z"/>
      <path class="cls-1" d="M664.68,30.23h-3.79l-7.35-8.73h-4.12v8.73h-2.92V8.26h6.15c1.33,0,2.43.09,3.32.26.89.17,1.68.48,2.39.92.8.5,1.42,1.13,1.87,1.9.45.76.67,1.73.67,2.9,0,1.58-.4,2.91-1.19,3.98-.8,1.07-1.89,1.87-3.29,2.41l8.26,9.61ZM657.85,14.44c0-.63-.11-1.19-.33-1.67-.22-.49-.59-.9-1.1-1.23-.42-.29-.92-.48-1.5-.6-.58-.11-1.26-.17-2.05-.17h-3.44v8.29h2.95c.92,0,1.73-.08,2.42-.24.69-.16,1.27-.46,1.76-.91.44-.41.77-.89.98-1.42.21-.54.32-1.22.32-2.04Z"/>
      <path class="cls-1" d="M688.92,30.23h-3.11l-2.15-6.12h-9.5l-2.15,6.12h-2.97l8-21.97h3.9l8,21.97ZM682.75,21.6l-3.85-10.79-3.87,10.79h7.72Z"/>
      <path class="cls-1" d="M724.46,30.23h-14.47V8.26h14.47v2.6h-11.55v6.02h11.55v2.6h-11.55v8.16h11.55v2.6Z"/>
      <path class="cls-1" d="M749.14,23.96c0,.86-.2,1.7-.6,2.54-.4.84-.96,1.54-1.67,2.12-.79.63-1.7,1.12-2.75,1.48-1.05.35-2.31.53-3.78.53-1.58,0-3.01-.15-4.27-.44-1.26-.29-2.55-.73-3.86-1.31v-3.66h.21c1.11.92,2.4,1.64,3.85,2.14,1.46.5,2.82.75,4.1.75,1.81,0,3.22-.34,4.23-1.02,1.01-.68,1.51-1.58,1.51-2.71,0-.97-.24-1.69-.71-2.15-.48-.46-1.2-.82-2.18-1.08-.74-.2-1.54-.36-2.4-.49-.86-.13-1.77-.29-2.74-.49-1.95-.41-3.39-1.12-4.33-2.12s-1.41-2.3-1.41-3.9c0-1.84.78-3.35,2.33-4.52,1.55-1.17,3.53-1.76,5.92-1.76,1.54,0,2.96.15,4.25.44,1.29.29,2.43.66,3.42,1.09v3.45h-.21c-.84-.71-1.94-1.3-3.3-1.76s-2.76-.7-4.18-.7c-1.56,0-2.82.33-3.77.97-.95.65-1.42,1.49-1.42,2.51,0,.91.24,1.63.71,2.15.47.52,1.3.92,2.49,1.19.63.14,1.52.31,2.69.5,1.16.2,2.14.4,2.95.6,1.63.43,2.86,1.09,3.69,1.96.83.88,1.24,2.1,1.24,3.67Z"/>
      <path class="cls-1" d="M773.58,10.86h-7.85v19.37h-2.92V10.86h-7.85v-2.6h18.62v2.6Z"/>
      <path class="cls-1" d="M796.17,30.23h-3.11l-2.15-6.12h-9.5l-2.15,6.12h-2.97l8-21.97h3.9l8,21.97ZM790,21.6l-3.85-10.79-3.87,10.79h7.72Z"/>
      <path class="cls-1" d="M821.76,30.23h-3.79l-7.35-8.73h-4.12v8.73h-2.92V8.26h6.15c1.33,0,2.43.09,3.32.26.89.17,1.68.48,2.39.92.8.5,1.42,1.13,1.87,1.9.45.76.67,1.73.67,2.9,0,1.58-.4,2.91-1.19,3.98-.8,1.07-1.89,1.87-3.29,2.41l8.26,9.61ZM814.93,14.44c0-.63-.11-1.19-.33-1.67-.22-.49-.59-.9-1.1-1.23-.42-.29-.92-.48-1.5-.6-.58-.11-1.26-.17-2.05-.17h-3.44v8.29h2.95c.92,0,1.73-.08,2.42-.24.69-.16,1.27-.46,1.76-.91.44-.41.77-.89.98-1.42.21-.54.32-1.22.32-2.04Z"/>
      <path class="cls-1" d="M859.65,30.23h-3.11l-2.15-6.12h-9.5l-2.15,6.12h-2.97l8-21.97h3.9l8,21.97ZM853.48,21.6l-3.85-10.79-3.87,10.79h7.72Z"/>
      <path class="cls-1" d="M880.96,30.23h-13.9V8.26h2.92v19.37h10.98v2.6Z"/>
      <path class="cls-1" d="M920.17,19.27c0,2-.44,3.81-1.31,5.43-.87,1.62-2.03,2.88-3.47,3.78-1,.62-2.12,1.07-3.36,1.34-1.24.28-2.86.41-4.88.41h-5.55V8.26h5.49c2.14,0,3.85.15,5.11.46,1.26.31,2.33.74,3.21,1.28,1.5.93,2.66,2.18,3.5,3.73.84,1.55,1.25,3.4,1.25,5.53ZM917.12,19.22c0-1.72-.3-3.17-.9-4.35-.6-1.18-1.5-2.11-2.69-2.79-.87-.49-1.79-.83-2.76-1.03-.97-.19-2.14-.29-3.5-.29h-2.74v16.95h2.74c1.41,0,2.63-.1,3.68-.31,1.05-.21,2.01-.59,2.88-1.15,1.09-.7,1.91-1.62,2.46-2.76.55-1.14.82-2.57.82-4.28Z"/>
      <path class="cls-1" d="M936.72,30.23h-8.67v-2.24h2.88V10.5h-2.88v-2.24h8.67v2.24h-2.88v17.48h2.88v2.24ZM936.72,0l-4.03,5.52h-2.2l2.64-5.52h3.58Z"/>
      <path class="cls-1" d="M963.1,30.23h-3.11l-2.15-6.12h-9.5l-2.15,6.12h-2.97l8-21.97h3.9l8,21.97ZM956.93,21.6l-3.85-10.79-3.87,10.79h7.72Z"/>
      <path class="cls-1" d="M18.56,59.88c0,2-.44,3.81-1.31,5.43-.87,1.62-2.03,2.88-3.47,3.78-1,.62-2.12,1.07-3.36,1.34s-2.86.41-4.88.41H0v-21.97h5.49c2.14,0,3.85.15,5.11.46,1.26.31,2.33.74,3.21,1.28,1.5.93,2.66,2.18,3.5,3.73.84,1.55,1.25,3.4,1.25,5.53ZM15.51,59.83c0-1.72-.3-3.17-.9-4.35-.6-1.18-1.5-2.11-2.69-2.79-.87-.49-1.79-.83-2.76-1.03-.97-.19-2.14-.29-3.5-.29h-2.74v16.95h2.74c1.41,0,2.63-.1,3.68-.31,1.05-.21,2.01-.59,2.88-1.15,1.09-.7,1.91-1.62,2.46-2.76.55-1.14.82-2.57.82-4.28Z"/>
      <path class="cls-1" d="M41.84,70.84h-14.47v-21.97h14.47v2.6h-11.55v6.02h11.55v2.6h-11.55v8.16h11.55v2.6Z"/>
      <path class="cls-1" d="M78.1,70.84h-13.9v-21.97h2.92v19.37h10.98v2.6Z"/>
      <path class="cls-1" d="M101.19,51.4c.89.98,1.58,2.19,2.06,3.62s.72,3.04.72,4.85-.24,3.43-.73,4.86c-.49,1.43-1.17,2.62-2.04,3.58-.91.99-1.98,1.74-3.21,2.24-1.23.5-2.64.75-4.23.75s-2.95-.26-4.21-.77c-1.26-.51-2.34-1.25-3.22-2.23-.89-.97-1.57-2.17-2.04-3.58s-.72-3.03-.72-4.85.24-3.4.71-4.82c.47-1.42,1.16-2.64,2.07-3.65.87-.96,1.94-1.7,3.22-2.21s2.68-.77,4.2-.77,2.99.26,4.24.78c1.25.52,2.32,1.25,3.19,2.21ZM100.92,59.86c0-2.85-.64-5.05-1.92-6.6-1.28-1.55-3.02-2.32-5.24-2.32s-3.99.77-5.26,2.32c-1.27,1.55-1.91,3.75-1.91,6.6s.65,5.09,1.95,6.62c1.3,1.53,3.04,2.29,5.22,2.29s3.92-.76,5.22-2.29c1.29-1.53,1.94-3.74,1.94-6.62Z"/>
      <path class="cls-1" d="M128.64,64.57c0,.86-.2,1.7-.6,2.54s-.96,1.54-1.67,2.12c-.79.63-1.7,1.12-2.75,1.48-1.05.35-2.31.53-3.78.53-1.58,0-3.01-.15-4.27-.44-1.26-.29-2.55-.73-3.86-1.31v-3.66h.21c1.11.92,2.4,1.64,3.85,2.14,1.46.5,2.82.75,4.1.75,1.81,0,3.22-.34,4.23-1.02,1.01-.68,1.51-1.58,1.51-2.71,0-.97-.24-1.69-.72-2.15-.48-.46-1.2-.82-2.18-1.08-.74-.2-1.54-.36-2.4-.49s-1.77-.29-2.74-.49c-1.95-.41-3.39-1.12-4.33-2.12-.94-1-1.41-2.3-1.41-3.9,0-1.84.78-3.35,2.33-4.52,1.55-1.17,3.53-1.76,5.92-1.76,1.54,0,2.96.15,4.25.44s2.43.66,3.42,1.09v3.45h-.21c-.84-.71-1.94-1.29-3.3-1.76-1.36-.47-2.76-.7-4.18-.7-1.56,0-2.82.33-3.77.97-.95.65-1.42,1.49-1.42,2.51,0,.92.24,1.63.71,2.15s1.3.92,2.49,1.2c.63.14,1.52.3,2.69.5,1.16.2,2.14.4,2.95.61,1.63.43,2.86,1.09,3.69,1.96.83.88,1.24,2.1,1.24,3.67Z"/>
      <path class="cls-1" d="M165.54,70.84h-14.47v-21.97h14.47v2.6h-11.55v6.02h11.55v2.6h-11.55v8.16h11.55v2.6Z"/>
      <path class="cls-1" d="M190.22,64.57c0,.86-.2,1.7-.6,2.54s-.96,1.54-1.67,2.12c-.79.63-1.7,1.12-2.75,1.48-1.05.35-2.31.53-3.78.53-1.58,0-3.01-.15-4.27-.44-1.26-.29-2.55-.73-3.86-1.31v-3.66h.21c1.11.92,2.4,1.64,3.85,2.14,1.46.5,2.82.75,4.1.75,1.81,0,3.22-.34,4.23-1.02,1.01-.68,1.51-1.58,1.51-2.71,0-.97-.24-1.69-.72-2.15-.48-.46-1.2-.82-2.18-1.08-.74-.2-1.54-.36-2.4-.49s-1.77-.29-2.74-.49c-1.95-.41-3.39-1.12-4.33-2.12-.94-1-1.41-2.3-1.41-3.9,0-1.84.78-3.35,2.33-4.52,1.55-1.17,3.53-1.76,5.92-1.76,1.54,0,2.96.15,4.25.44s2.43.66,3.42,1.09v3.45h-.21c-.84-.71-1.94-1.29-3.3-1.76-1.36-.47-2.76-.7-4.18-.7-1.56,0-2.82.33-3.77.97-.95.65-1.42,1.49-1.42,2.51,0,.92.24,1.63.71,2.15s1.3.92,2.49,1.2c.63.14,1.52.3,2.69.5,1.16.2,2.14.4,2.95.61,1.63.43,2.86,1.09,3.69,1.96.83.88,1.24,2.1,1.24,3.67Z"/>
      <path class="cls-1" d="M214.66,51.47h-7.85v19.37h-2.92v-19.37h-7.85v-2.6h18.62v2.6Z"/>
      <path class="cls-1" d="M239.87,70.84h-3.79l-7.35-8.73h-4.12v8.73h-2.92v-21.97h6.15c1.33,0,2.43.09,3.32.26.89.17,1.68.48,2.39.92.8.5,1.42,1.13,1.87,1.9.45.76.67,1.73.67,2.9,0,1.58-.4,2.91-1.2,3.98-.8,1.07-1.89,1.87-3.29,2.41l8.26,9.6ZM233.04,55.05c0-.63-.11-1.19-.33-1.67-.22-.49-.59-.9-1.1-1.23-.42-.29-.92-.48-1.5-.6-.58-.11-1.26-.17-2.05-.17h-3.44v8.29h2.95c.92,0,1.73-.08,2.42-.24s1.27-.46,1.76-.91c.44-.41.77-.89.98-1.42s.32-1.22.32-2.04Z"/>
      <path class="cls-1" d="M261.26,70.84h-14.47v-21.97h14.47v2.6h-11.55v6.02h11.55v2.6h-11.55v8.16h11.55v2.6Z"/>
      <path class="cls-1" d="M286.74,70.84h-3.61l-10.42-19.65v19.65h-2.73v-21.97h4.53l9.5,17.94v-17.94h2.73v21.97Z"/>
      <path class="cls-1" d="M313.04,51.4c.89.98,1.58,2.19,2.06,3.62s.72,3.04.72,4.85-.24,3.43-.73,4.86c-.49,1.43-1.17,2.62-2.04,3.58-.91.99-1.98,1.74-3.21,2.24-1.23.5-2.64.75-4.23.75s-2.95-.26-4.21-.77c-1.26-.51-2.34-1.25-3.22-2.23-.89-.97-1.57-2.17-2.04-3.58s-.72-3.03-.72-4.85.24-3.4.71-4.82c.47-1.42,1.16-2.64,2.07-3.65.87-.96,1.94-1.7,3.22-2.21s2.68-.77,4.2-.77,2.99.26,4.24.78c1.25.52,2.32,1.25,3.19,2.21ZM312.78,59.86c0-2.85-.64-5.05-1.92-6.6-1.28-1.55-3.02-2.32-5.24-2.32s-3.99.77-5.26,2.32c-1.27,1.55-1.91,3.75-1.91,6.6s.65,5.09,1.95,6.62c1.3,1.53,3.04,2.29,5.22,2.29s3.92-.76,5.22-2.29c1.29-1.53,1.94-3.74,1.94-6.62Z"/>
      <path class="cls-1" d="M340.5,64.57c0,.86-.2,1.7-.6,2.54s-.96,1.54-1.67,2.12c-.79.63-1.7,1.12-2.75,1.48-1.05.35-2.31.53-3.78.53-1.58,0-3.01-.15-4.27-.44-1.26-.29-2.55-.73-3.86-1.31v-3.66h.21c1.11.92,2.4,1.64,3.85,2.14,1.46.5,2.82.75,4.1.75,1.81,0,3.22-.34,4.23-1.02,1.01-.68,1.51-1.58,1.51-2.71,0-.97-.24-1.69-.72-2.15-.48-.46-1.2-.82-2.18-1.08-.74-.2-1.54-.36-2.4-.49s-1.77-.29-2.74-.49c-1.95-.41-3.39-1.12-4.33-2.12-.94-1-1.41-2.3-1.41-3.9,0-1.84.78-3.35,2.33-4.52,1.55-1.17,3.53-1.76,5.92-1.76,1.54,0,2.96.15,4.25.44s2.43.66,3.42,1.09v3.45h-.21c-.84-.71-1.94-1.29-3.3-1.76-1.36-.47-2.76-.7-4.18-.7-1.56,0-2.82.33-3.77.97-.95.65-1.42,1.49-1.42,2.51,0,.92.24,1.63.71,2.15s1.3.92,2.49,1.2c.63.14,1.52.3,2.69.5,1.16.2,2.14.4,2.95.61,1.63.43,2.86,1.09,3.69,1.96.83.88,1.24,2.1,1.24,3.67Z"/>
      <path class="cls-1" d="M378.47,48.87l-7.73,12.33v9.63h-2.92v-9.32l-7.76-12.64h3.23l6,9.83,6.06-9.83h3.11Z"/>
      <path class="cls-1" d="M413.61,55.51c0,.97-.17,1.88-.51,2.71s-.81,1.55-1.42,2.16c-.76.76-1.65,1.33-2.69,1.7-1.03.38-2.34.57-3.91.57h-2.92v8.19h-2.92v-21.97h5.96c1.32,0,2.43.11,3.35.33.91.22,1.73.57,2.43,1.04.84.56,1.48,1.26,1.94,2.09s.69,1.89.69,3.17ZM410.57,55.59c0-.76-.13-1.42-.4-1.98-.27-.56-.67-1.02-1.21-1.37-.47-.3-1.01-.52-1.62-.66s-1.37-.2-2.29-.2h-2.89v8.78h2.46c1.18,0,2.14-.11,2.88-.32.74-.21,1.34-.55,1.8-1.01.46-.47.79-.97.98-1.49.19-.52.29-1.11.29-1.76Z"/>
      <path class="cls-1" d="M439.72,70.84h-3.79l-7.35-8.73h-4.12v8.73h-2.92v-21.97h6.15c1.33,0,2.43.09,3.32.26.89.17,1.68.48,2.39.92.8.5,1.42,1.13,1.87,1.9.45.76.67,1.73.67,2.9,0,1.58-.4,2.91-1.2,3.98-.8,1.07-1.89,1.87-3.29,2.41l8.26,9.6ZM432.89,55.05c0-.63-.11-1.19-.33-1.67-.22-.49-.59-.9-1.1-1.23-.42-.29-.92-.48-1.5-.6-.58-.11-1.26-.17-2.05-.17h-3.44v8.29h2.95c.92,0,1.73-.08,2.42-.24s1.27-.46,1.76-.91c.44-.41.77-.89.98-1.42s.32-1.22.32-2.04Z"/>
      <path class="cls-1" d="M463.02,51.4c.89.98,1.58,2.19,2.06,3.62s.72,3.04.72,4.85-.24,3.43-.73,4.86c-.49,1.43-1.17,2.62-2.04,3.58-.91.99-1.98,1.74-3.21,2.24-1.23.5-2.64.75-4.23.75s-2.95-.26-4.21-.77c-1.26-.51-2.34-1.25-3.22-2.23-.89-.97-1.57-2.17-2.04-3.58s-.72-3.03-.72-4.85.24-3.4.71-4.82c.47-1.42,1.16-2.64,2.07-3.65.87-.96,1.94-1.7,3.22-2.21s2.68-.77,4.2-.77,2.99.26,4.24.78c1.25.52,2.32,1.25,3.19,2.21ZM462.75,59.86c0-2.85-.64-5.05-1.92-6.6-1.28-1.55-3.02-2.32-5.24-2.32s-3.99.77-5.26,2.32c-1.27,1.55-1.91,3.75-1.91,6.6s.65,5.09,1.95,6.62c1.3,1.53,3.04,2.29,5.22,2.29s3.92-.76,5.22-2.29c1.29-1.53,1.94-3.74,1.94-6.62Z"/>
      <path class="cls-1" d="M494.07,70.84h-2.92v-18.93l-6.11,12.88h-1.74l-6.06-12.88v18.93h-2.73v-21.97h3.98l5.86,12.23,5.67-12.23h4.06v21.97Z"/>
      <path class="cls-1" d="M520.43,51.4c.89.98,1.58,2.19,2.06,3.62s.72,3.04.72,4.85-.24,3.43-.73,4.86c-.49,1.43-1.17,2.62-2.04,3.58-.91.99-1.98,1.74-3.21,2.24-1.23.5-2.64.75-4.23.75s-2.95-.26-4.21-.77c-1.26-.51-2.34-1.25-3.22-2.23-.89-.97-1.57-2.17-2.04-3.58s-.72-3.03-.72-4.85.24-3.4.71-4.82c.47-1.42,1.16-2.64,2.07-3.65.87-.96,1.94-1.7,3.22-2.21s2.68-.77,4.2-.77,2.99.26,4.24.78c1.25.52,2.32,1.25,3.19,2.21ZM520.17,59.86c0-2.85-.64-5.05-1.92-6.6-1.28-1.55-3.02-2.32-5.24-2.32s-3.99.77-5.26,2.32c-1.27,1.55-1.91,3.75-1.91,6.6s.65,5.09,1.95,6.62c1.3,1.53,3.04,2.29,5.22,2.29s3.92-.76,5.22-2.29c1.29-1.53,1.94-3.74,1.94-6.62Z"/>
      <path class="cls-1" d="M548.89,69.25c-.54.24-1.03.46-1.47.66-.44.21-1.01.42-1.72.65-.6.19-1.25.35-1.96.48s-1.48.2-2.32.2c-1.59,0-3.04-.22-4.34-.67-1.3-.45-2.44-1.15-3.4-2.1-.94-.93-1.68-2.12-2.21-3.56-.53-1.44-.8-3.12-.8-5.02s.26-3.43.77-4.85,1.25-2.63,2.21-3.62c.93-.95,2.06-1.68,3.39-2.18,1.32-.5,2.79-.75,4.4-.75,1.18,0,2.36.14,3.53.43,1.17.29,2.48.79,3.92,1.5v3.47h-.22c-1.21-1.01-2.41-1.75-3.6-2.21-1.19-.46-2.46-.69-3.82-.69-1.11,0-2.11.18-3,.54-.89.36-1.68.92-2.38,1.67-.68.74-1.21,1.67-1.59,2.8-.38,1.13-.57,2.43-.57,3.9s.21,2.87.63,3.98.96,2.02,1.62,2.71c.69.73,1.49,1.27,2.41,1.62.92.35,1.89.52,2.91.52,1.41,0,2.72-.24,3.95-.72,1.23-.48,2.38-1.21,3.45-2.17h.21v3.42Z"/>
      <path class="cls-1" d="M564.85,70.84h-8.67v-2.24h2.88v-17.48h-2.88v-2.24h8.67v2.24h-2.88v17.48h2.88v2.24Z"/>
      <path class="cls-1" d="M590.28,51.4c.89.98,1.58,2.19,2.06,3.62.48,1.43.72,3.04.72,4.85s-.24,3.43-.73,4.86c-.49,1.43-1.17,2.62-2.04,3.58-.91.99-1.97,1.74-3.21,2.24s-2.64.75-4.23.75-2.95-.26-4.21-.77c-1.26-.51-2.34-1.25-3.22-2.23-.89-.97-1.57-2.17-2.04-3.58-.48-1.42-.72-3.03-.72-4.85s.24-3.4.71-4.82c.47-1.42,1.16-2.64,2.07-3.65.87-.96,1.94-1.7,3.22-2.21s2.68-.77,4.2-.77,2.99.26,4.24.78c1.25.52,2.32,1.25,3.19,2.21ZM590.02,59.86c0-2.85-.64-5.05-1.92-6.6-1.28-1.55-3.02-2.32-5.24-2.32s-3.99.77-5.26,2.32c-1.27,1.55-1.91,3.75-1.91,6.6s.65,5.09,1.95,6.62c1.3,1.53,3.04,2.29,5.22,2.29s3.92-.76,5.22-2.29c1.29-1.53,1.94-3.74,1.94-6.62Z"/>
      <path class="cls-1" d="M618.54,70.84h-3.62l-10.42-19.65v19.65h-2.73v-21.97h4.53l9.5,17.94v-17.94h2.73v21.97Z"/>
      <path class="cls-1" d="M642.94,70.84h-14.47v-21.97h14.47v2.6h-11.55v6.02h11.55v2.6h-11.55v8.16h11.55v2.6Z"/>
      <path class="cls-1" d="M667.62,64.57c0,.86-.2,1.7-.6,2.54s-.96,1.54-1.67,2.12c-.79.63-1.7,1.12-2.75,1.48-1.05.35-2.31.53-3.78.53-1.58,0-3.01-.15-4.27-.44s-2.55-.73-3.86-1.31v-3.66h.21c1.11.92,2.4,1.64,3.85,2.14,1.46.5,2.82.75,4.1.75,1.81,0,3.22-.34,4.23-1.02,1.01-.68,1.51-1.58,1.51-2.71,0-.97-.24-1.69-.71-2.15-.48-.46-1.2-.82-2.18-1.08-.74-.2-1.54-.36-2.4-.49s-1.77-.29-2.74-.49c-1.95-.41-3.39-1.12-4.33-2.12-.94-1-1.41-2.3-1.41-3.9,0-1.84.78-3.35,2.33-4.52,1.55-1.17,3.53-1.76,5.92-1.76,1.54,0,2.96.15,4.25.44,1.29.29,2.43.66,3.42,1.09v3.45h-.21c-.84-.71-1.94-1.29-3.3-1.76-1.36-.47-2.76-.7-4.18-.7-1.56,0-2.82.33-3.77.97-.95.65-1.42,1.49-1.42,2.51,0,.92.24,1.63.71,2.15s1.3.92,2.49,1.2c.63.14,1.52.3,2.69.5,1.16.2,2.14.4,2.95.61,1.63.43,2.86,1.09,3.69,1.96.83.88,1.24,2.1,1.24,3.67Z"/>
      <path class="cls-1" d="M708.6,59.88c0,2-.44,3.81-1.31,5.43-.87,1.62-2.03,2.88-3.47,3.78-1,.62-2.12,1.07-3.36,1.34-1.24.28-2.86.41-4.88.41h-5.55v-21.97h5.49c2.14,0,3.85.15,5.11.46,1.26.31,2.33.74,3.21,1.28,1.5.93,2.66,2.18,3.5,3.73.84,1.55,1.25,3.4,1.25,5.53ZM705.54,59.83c0-1.72-.3-3.17-.9-4.35-.6-1.18-1.5-2.11-2.69-2.79-.87-.49-1.79-.83-2.76-1.03-.97-.19-2.14-.29-3.5-.29h-2.74v16.95h2.74c1.41,0,2.63-.1,3.68-.31,1.05-.21,2.01-.59,2.88-1.15,1.09-.7,1.91-1.62,2.46-2.76.55-1.14.82-2.57.82-4.28Z"/>
      <path class="cls-1" d="M731.88,70.84h-14.47v-21.97h14.47v2.6h-11.55v6.02h11.55v2.6h-11.55v8.16h11.55v2.6Z"/>
      <path class="cls-1" d="M770.2,64.57c0,.86-.2,1.7-.6,2.54s-.96,1.54-1.67,2.12c-.79.63-1.7,1.12-2.75,1.48-1.05.35-2.31.53-3.78.53-1.58,0-3.01-.15-4.27-.44s-2.55-.73-3.86-1.31v-3.66h.21c1.11.92,2.4,1.64,3.85,2.14,1.46.5,2.82.75,4.1.75,1.81,0,3.22-.34,4.23-1.02,1.01-.68,1.51-1.58,1.51-2.71,0-.97-.24-1.69-.71-2.15-.48-.46-1.2-.82-2.18-1.08-.74-.2-1.54-.36-2.4-.49s-1.77-.29-2.74-.49c-1.95-.41-3.39-1.12-4.33-2.12-.94-1-1.41-2.3-1.41-3.9,0-1.84.78-3.35,2.33-4.52,1.55-1.17,3.53-1.76,5.92-1.76,1.54,0,2.96.15,4.25.44,1.29.29,2.43.66,3.42,1.09v3.45h-.21c-.84-.71-1.94-1.29-3.3-1.76-1.36-.47-2.76-.7-4.18-.7-1.56,0-2.82.33-3.77.97-.95.65-1.42,1.49-1.42,2.51,0,.92.24,1.63.71,2.15s1.3.92,2.49,1.2c.63.14,1.52.3,2.69.5,1.16.2,2.14.4,2.95.61,1.63.43,2.86,1.09,3.69,1.96.83.88,1.24,2.1,1.24,3.67Z"/>
      <path class="cls-1" d="M795.36,51.4c.89.98,1.58,2.19,2.06,3.62.48,1.43.72,3.04.72,4.85s-.24,3.43-.73,4.86c-.49,1.43-1.17,2.62-2.04,3.58-.91.99-1.97,1.74-3.21,2.24s-2.64.75-4.23.75-2.95-.26-4.21-.77c-1.26-.51-2.34-1.25-3.22-2.23-.89-.97-1.57-2.17-2.04-3.58-.48-1.42-.72-3.03-.72-4.85s.24-3.4.71-4.82c.47-1.42,1.16-2.64,2.07-3.65.87-.96,1.94-1.7,3.22-2.21s2.68-.77,4.2-.77,2.99.26,4.24.78c1.25.52,2.32,1.25,3.19,2.21ZM795.09,59.86c0-2.85-.64-5.05-1.92-6.6-1.28-1.55-3.02-2.32-5.24-2.32s-3.99.77-5.26,2.32c-1.27,1.55-1.91,3.75-1.91,6.6s.65,5.09,1.95,6.62c1.3,1.53,3.04,2.29,5.22,2.29s3.92-.76,5.22-2.29c1.29-1.53,1.94-3.74,1.94-6.62Z"/>
      <path class="cls-1" d="M823.61,70.84h-3.62l-10.42-19.65v19.65h-2.73v-21.97h4.53l9.5,17.94v-17.94h2.73v21.97Z"/>
      <path class="cls-1" d="M849.08,48.87l-7.73,12.33v9.63h-2.92v-9.32l-7.76-12.64h3.23l6,9.83,6.06-9.83h3.11Z"/>
      <path class="cls-1" d="M884.22,55.51c0,.97-.17,1.88-.51,2.71-.34.83-.81,1.55-1.42,2.16-.76.76-1.65,1.33-2.69,1.7-1.03.38-2.34.57-3.91.57h-2.92v8.19h-2.92v-21.97h5.96c1.32,0,2.43.11,3.35.33.92.22,1.73.57,2.43,1.04.84.56,1.48,1.26,1.94,2.09.46.84.69,1.89.69,3.17ZM881.18,55.59c0-.76-.13-1.42-.4-1.98-.27-.56-.67-1.02-1.21-1.37-.47-.3-1.01-.52-1.62-.66-.61-.13-1.37-.2-2.29-.2h-2.89v8.78h2.46c1.18,0,2.14-.11,2.88-.32.74-.21,1.34-.55,1.8-1.01.46-.47.79-.97.98-1.49.19-.52.29-1.11.29-1.76Z"/>
      <path class="cls-1" d="M899.9,70.84h-8.67v-2.24h2.88v-17.48h-2.88v-2.24h8.67v2.24h-2.88v17.48h2.88v2.24Z"/>
      <path class="cls-1" d="M925.93,69.25c-.54.24-1.03.46-1.47.66-.44.21-1.01.42-1.72.65-.6.19-1.25.35-1.96.48s-1.48.2-2.32.2c-1.59,0-3.04-.22-4.34-.67-1.3-.45-2.44-1.15-3.4-2.1-.94-.93-1.68-2.12-2.21-3.56-.53-1.44-.8-3.12-.8-5.02s.26-3.43.77-4.85,1.25-2.63,2.21-3.62c.93-.95,2.06-1.68,3.39-2.18,1.32-.5,2.79-.75,4.4-.75,1.18,0,2.36.14,3.53.43,1.17.29,2.48.79,3.92,1.5v3.47h-.22c-1.21-1.01-2.41-1.75-3.6-2.21-1.19-.46-2.46-.69-3.82-.69-1.11,0-2.11.18-3,.54-.89.36-1.68.92-2.38,1.67-.68.74-1.21,1.67-1.59,2.8-.38,1.13-.57,2.43-.57,3.9s.21,2.87.63,3.98.96,2.02,1.62,2.71c.69.73,1.49,1.27,2.41,1.62.92.35,1.89.52,2.91.52,1.41,0,2.72-.24,3.95-.72,1.23-.48,2.38-1.21,3.45-2.17h.21v3.42Z"/>
      <path class="cls-1" d="M949.81,51.47h-7.85v19.37h-2.92v-19.37h-7.85v-2.6h18.62v2.6Z"/>
      <path class="cls-1" d="M973.39,62.02c0,1.59-.17,2.98-.52,4.17-.35,1.19-.92,2.17-1.72,2.96-.76.75-1.64,1.29-2.66,1.64-1.01.34-2.19.52-3.54.52s-2.58-.18-3.6-.55c-1.02-.36-1.88-.9-2.58-1.61-.8-.81-1.37-1.78-1.72-2.92-.35-1.14-.52-2.54-.52-4.21v-13.15h2.92v13.29c0,1.19.08,2.13.24,2.82s.44,1.31.82,1.87c.43.64,1.02,1.12,1.76,1.45.74.33,1.63.49,2.68.49s1.95-.16,2.69-.48c.74-.32,1.33-.8,1.77-1.45.38-.56.66-1.2.82-1.93s.24-1.62.24-2.69v-13.37h2.92v13.15Z"/>
      <path class="cls-1" d="M1001.22,70.84h-3.79l-7.35-8.73h-4.12v8.73h-2.92v-21.97h6.15c1.33,0,2.43.09,3.32.26.89.17,1.68.48,2.39.92.8.5,1.42,1.13,1.87,1.9.45.76.67,1.73.67,2.9,0,1.58-.4,2.91-1.19,3.98-.8,1.07-1.89,1.87-3.29,2.41l8.26,9.6ZM994.39,55.05c0-.63-.11-1.19-.33-1.67-.22-.49-.59-.9-1.1-1.23-.42-.29-.92-.48-1.5-.6-.58-.11-1.26-.17-2.05-.17h-3.44v8.29h2.95c.92,0,1.73-.08,2.42-.24s1.27-.46,1.76-.91c.44-.41.77-.89.98-1.42s.32-1.22.32-2.04Z"/>
      <path class="cls-1" d="M1022.61,70.84h-14.47v-21.97h14.47v2.6h-11.55v6.02h11.55v2.6h-11.55v8.16h11.55v2.6Z"/>
      <path class="cls-1" d="M1047.29,64.57c0,.86-.2,1.7-.6,2.54s-.96,1.54-1.67,2.12c-.79.63-1.7,1.12-2.75,1.48-1.05.35-2.31.53-3.78.53-1.58,0-3.01-.15-4.27-.44s-2.55-.73-3.86-1.31v-3.66h.21c1.11.92,2.4,1.64,3.85,2.14,1.46.5,2.82.75,4.1.75,1.81,0,3.22-.34,4.23-1.02,1.01-.68,1.51-1.58,1.51-2.71,0-.97-.24-1.69-.71-2.15-.48-.46-1.2-.82-2.18-1.08-.74-.2-1.54-.36-2.4-.49s-1.77-.29-2.74-.49c-1.95-.41-3.39-1.12-4.33-2.12-.94-1-1.41-2.3-1.41-3.9,0-1.84.78-3.35,2.33-4.52,1.55-1.17,3.53-1.76,5.92-1.76,1.54,0,2.96.15,4.25.44,1.29.29,2.43.66,3.42,1.09v3.45h-.21c-.84-.71-1.94-1.29-3.3-1.76-1.36-.47-2.76-.7-4.18-.7-1.56,0-2.82.33-3.77.97-.95.65-1.42,1.49-1.42,2.51,0,.92.24,1.63.71,2.15s1.3.92,2.49,1.2c.63.14,1.52.3,2.69.5,1.16.2,2.14.4,2.95.61,1.63.43,2.86,1.09,3.69,1.96.83.88,1.24,2.1,1.24,3.67Z"/>
    </g>
  </g>
</svg>